<svg xmlns="http://www.w3.org/2000/svg" viewBox="0 0 800 480">
  <!-- Background -->
  <rect width="800" height="480" fill="#0c0c16" rx="8" ry="8"/>
  
  <!-- Header -->
  <rect x="5" y="5" width="790" height="50" fill="#0e0e1a" rx="6" ry="6" stroke="#20a87e" stroke-width="1"/>
  
  <!-- Title at the top -->
  <text x="400" y="23" fill="#20a87e" font-family="monospace" font-size="14" text-anchor="middle">YouTube to MediaCMS Sync</text>
  
  <!-- Stats on a separate line below the title -->
  <text x="65" y="40" fill="#20a87e" font-family="monospace" font-size="14" text-anchor="start">Downloaded:</text>
  <text x="160" y="40" fill="#ffffff" font-family="monospace" font-size="14" text-anchor="start">25</text>
  <text x="185" y="40" fill="#ffffff" font-family="monospace" font-size="14" text-anchor="start">|</text>
  
  <text x="200" y="40" fill="#3b82f6" font-family="monospace" font-size="14" text-anchor="start">Uploaded:</text>
  <text x="285" y="40" fill="#ffffff" font-family="monospace" font-size="14" text-anchor="start">12</text>
  <text x="305" y="40" fill="#ffffff" font-family="monospace" font-size="14" text-anchor="start">|</text>
  
  <text x="320" y="40" fill="#d97706" font-family="monospace" font-size="14" text-anchor="start">Encoding:</text>
  <text x="400" y="40" fill="#ffffff" font-family="monospace" font-size="14" text-anchor="start">5</text>
  <text x="415" y="40" fill="#ffffff" font-family="monospace" font-size="14" text-anchor="start">|</text>
  
  <text x="430" y="40" fill="#10b981" font-family="monospace" font-size="14" text-anchor="start">Completed:</text>
  <text x="515" y="40" fill="#ffffff" font-family="monospace" font-size="14" text-anchor="start">7</text>
  
  <text x="600" y="40" fill="#ffffff" font-family="monospace" font-size="14" text-anchor="start">Running time:</text>
  <text x="720" y="40" fill="#ffffff" font-family="monospace" font-size="14" text-anchor="start">0:15:42</text>
  
  <!-- Download Threads Section -->
  <text x="400" y="85" fill="#ffffff" font-family="monospace" font-size="16" text-anchor="middle">Download Threads</text>
  <rect x="5" y="95" width="790" height="100" fill="none" stroke="#3b82f6" stroke-width="2" rx="3" ry="3"/>
  
  <!-- Download Threads Headers -->
  <rect x="5" y="95" width="200" height="30" fill="#131325" rx="3" ry="3"/>
  <rect x="205" y="95" width="200" height="30" fill="#131325" rx="0" ry="0"/>
  <rect x="405" y="95" width="200" height="30" fill="#131325" rx="0" ry="0"/>
  <rect x="605" y="95" width="190" height="30" fill="#131325" rx="3" ry="3"/>
  
  <text x="20" y="115" fill="#ffffff" font-family="monospace" font-size="14" text-anchor="start">Thread ID</text>
  <text x="220" y="115" fill="#ffffff" font-family="monospace" font-size="14" text-anchor="start">Status</text>
  <text x="420" y="115" fill="#ffffff" font-family="monospace" font-size="14" text-anchor="start">Video</text>
  <text x="620" y="115" fill="#ffffff" font-family="monospace" font-size="14" text-anchor="start">Last Update</text>
  
  <!-- Download Threads Row 1 -->
  <rect x="5" y="125" width="790" height="30" fill="#0a0a14" rx="0" ry="0"/>
  <text x="20" y="145" fill="#ffffff" font-family="monospace" font-size="14" text-anchor="start">Download-1</text>
  <text x="220" y="145" fill="#10b981" font-family="monospace" font-size="14" text-anchor="start">completed</text>
  <text x="420" y="145" fill="#ffffff" font-family="monospace" font-size="14" text-anchor="start">aB3cD4eF5g</text>
  <text x="620" y="145" fill="#ffffff" font-family="monospace" font-size="14" text-anchor="start">00:14:23</text>
  
  <!-- Download Threads Row 2 -->
  <rect x="5" y="155" width="790" height="30" fill="#0f0f1c" rx="0" ry="0"/>
  <text x="20" y="175" fill="#ffffff" font-family="monospace" font-size="14" text-anchor="start">Download-2</text>
  <text x="220" y="175" fill="#d97706" font-family="monospace" font-size="14" text-anchor="start">downloading</text>
  <text x="420" y="175" fill="#ffffff" font-family="monospace" font-size="14" text-anchor="start">hI6jK7lM8n</text>
  <text x="620" y="175" fill="#ffffff" font-family="monospace" font-size="14" text-anchor="start">00:15:42</text>
  
  <!-- Upload/Encoding Threads Section -->
  <text x="400" y="220" fill="#ffffff" font-family="monospace" font-size="16" text-anchor="middle">Upload/Encoding Threads</text>
  <rect x="5" y="230" width="790" height="100" fill="none" stroke="#10b981" stroke-width="2" rx="3" ry="3"/>
  
  <!-- Upload/Encoding Threads Headers -->
  <rect x="5" y="230" width="150" height="30" fill="#131325" rx="3" ry="3"/>
  <rect x="155" y="230" width="150" height="30" fill="#131325" rx="0" ry="0"/>
  <rect x="305" y="230" width="200" height="30" fill="#131325" rx="0" ry="0"/>
  <rect x="505" y="230" width="150" height="30" fill="#131325" rx="0" ry="0"/>
  <rect x="655" y="230" width="140" height="30" fill="#131325" rx="3" ry="3"/>
  
  <text x="20" y="250" fill="#ffffff" font-family="monospace" font-size="14" text-anchor="start">Thread ID</text>
  <text x="170" y="250" fill="#ffffff" font-family="monospace" font-size="14" text-anchor="start">Status</text>
  <text x="320" y="250" fill="#ffffff" font-family="monospace" font-size="14" text-anchor="start">Video</text>
  <text x="520" y="250" fill="#ffffff" font-family="monospace" font-size="14" text-anchor="start">Encoding</text>
  <text x="670" y="250" fill="#ffffff" font-family="monospace" font-size="14" text-anchor="start">Last Update</text>
  
  <!-- Upload/Encoding Threads Row 1 -->
  <rect x="5" y="260" width="790" height="30" fill="#0a0a14" rx="0" ry="0"/>
  <text x="20" y="280" fill="#ffffff" font-family="monospace" font-size="14" text-anchor="start">Upload-1</text>
  <text x="170" y="280" fill="#3b82f6" font-family="monospace" font-size="14" text-anchor="start">waiting</text>
  <text x="320" y="280" fill="#ffffff" font-family="monospace" font-size="14" text-anchor="start">MC:xY5zW6vU7t</text>
  <text x="520" y="280" fill="#d97706" font-family="monospace" font-size="14" text-anchor="start">pending</text>
  <text x="670" y="280" fill="#ffffff" font-family="monospace" font-size="14" text-anchor="start">00:14:53</text>
  
  <!-- Upload/Encoding Threads Row 2 -->
  <rect x="5" y="290" width="790" height="30" fill="#0f0f1c" rx="0" ry="0"/>
  <text x="20" y="310" fill="#ffffff" font-family="monospace" font-size="14" text-anchor="start">Upload-2</text>
  <text x="170" y="310" fill="#10b981" font-family="monospace" font-size="14" text-anchor="start">uploaded</text>
  <text x="320" y="310" fill="#ffffff" font-family="monospace" font-size="14" text-anchor="start">MC:pQ3rS2tU1v</text>
  <text x="520" y="310" fill="#10b981" font-family="monospace" font-size="14" text-anchor="start">success</text>
  <text x="670" y="310" fill="#ffffff" font-family="monospace" font-size="14" text-anchor="start">00:15:12</text>
  
  <!-- Recent Logs Section -->
  <rect x="5" y="350" width="790" height="125" fill="none" stroke="#d97706" stroke-width="2" rx="6" ry="6"/>
  <text x="400" y="372" fill="#ffffff" font-family="monospace" font-size="16" text-anchor="middle">Recent Logs</text>
  
  <!-- Log entries -->
  <text x="30" y="395" fill="#666666" font-family="monospace" font-size="13" text-anchor="start">00:12:07</text>
  <text x="100" y="395" fill="#3b82f6" font-family="monospace" font-size="13" text-anchor="start">INFO</text>
  <text x="160" y="395" fill="#ffffff" font-family="monospace" font-size="13" text-anchor="start">Starting upload to https://mediacms.example.org/api/v1/media/...</text>
  
  <text x="30" y="415" fill="#666666" font-family="monospace" font-size="13" text-anchor="start">00:13:22</text>
  <text x="100" y="415" fill="#3b82f6" font-family="monospace" font-size="13" text-anchor="start">INFO</text>
  <text x="160" y="415" fill="#ffffff" font-family="monospace" font-size="13" text-anchor="start">Upload completed in 7.2 seconds (6.45 MB/s)</text>
  
  <text x="30" y="435" fill="#666666" font-family="monospace" font-size="13" text-anchor="start">00:13:23</text>
  <text x="100" y="435" fill="#3b82f6" font-family="monospace" font-size="13" text-anchor="start">INFO</text>
  <text x="160" y="435" fill="#ffffff" font-family="monospace" font-size="13" text-anchor="start">Successfully uploaded My Awesome Channel Weekly Update</text>
  
  <text x="30" y="455" fill="#666666" font-family="monospace" font-size="13" text-anchor="start">00:15:42</text>
  <text x="100" y="455" fill="#3b82f6" font-family="monospace" font-size="13" text-anchor="start">INFO</text>
  <text x="160" y="455" fill="#ffffff" font-family="monospace" font-size="13" text-anchor="start">Upload-1: Waiting for video xY5zW6vU7t to finish encoding (status: pending)</text>
</svg>
